<svg width="658.3px" height="121.4px" xmlns="http://www.w3.org/2000/svg" viewBox="-79.13247070312497 14.297509765625001 658.2649414062499 121.40498046875" style="background: rgba(0, 0, 0, 0)" preserveAspectRatio="xMidYMid"><defs><linearGradient id="editing-shiny-gradient" x1="0.04322727117869957" x2="0.9567727288213004" y1="0.2966316784620999" y2="0.7033683215379001" gradientUnits="objectBoundingBox"><stop offset="0" stop-color="#ffb200"></stop><stop offset="0.5" stop-color="#e10057"></stop><stop offset="1" stop-color="#5a1a80"></stop></linearGradient><linearGradient id="editing-shiny-gradient2" x1="0" x2="0" y1="0" y2="1"><stop offset="0.2" stop-color="#ffffff" stop-opacity="0.8"></stop><stop offset="0.8" stop-color="#ffffff" stop-opacity="0"></stop></linearGradient><filter id="editing-shiny2" x="-100%" y="-100%" width="300%" height="300%"><feMorphology operator="erode" radius="2"></feMorphology></filter><filter id="editing-shiny" x="-100%" y="-100%" width="300%" height="300%"><feFlood flood-color="#fff" result="flood"></feFlood><feConvolveMatrix in="SourceGraphic" result="conv" order="8,8" divisor="1" kernelMatrix="0 0 0 0 0 0 0 0 0 0 0 1 1 0 0 0 0 0 0 1 1 0 0 0 0 0 1 0 0 1 0 0 0 0 1 0 0 1 0 0 0 1 0 0 0 0 1 0 0 1 1 0 0 1 1 0 0 0 0 1 1 0 0 0 "></feConvolveMatrix><feOffset dx="0" dy="4" in="conv" result="offset"></feOffset><feComposite operator="in" in="flood" in2="offset" result="comp"></feComposite><feGaussianBlur in="offset" stdDeviation="3" result="shadow"></feGaussianBlur><feColorMatrix in="shadow" type="matrix" values="0.7 0 0 0 0  0 0.7 0 0 0  0 0 0.7 0 0  0 0 0 0.3 0" result="dark-shadow"></feColorMatrix><feOffset dx="0" dy="4" in="dark-shadow" result="offset-shadow"></feOffset><feOffset dx="0" dy="2" in="conv" result="offset-2"></feOffset><feComposite operator="out" in="offset" in2="offset-2" result="edge-diff"></feComposite><feGaussianBlur in="edge-diff" stdDeviation="1" result="edge-blur"></feGaussianBlur><feColorMatrix in="edge-blur" result="edge-shadow" type="matrix" values="0 0 0 0 0  0 0 0 0 0  0 0 0 0 0  0 0 0 0.5 0"></feColorMatrix><feComposite operator="in" in="edge-shadow" in2="offset" result="edge-shadow-in"></feComposite><feOffset dx="0" dy="1" in="edge-shadow-in" result="edge-shadow-final"></feOffset><feMerge result="out"><feMergeNode in="offset-shadow"></feMergeNode><feMergeNode in="comp"></feMergeNode><feMergeNode in="edge-shadow-final"></feMergeNode><feMergeNode in="SourceGraphic"></feMergeNode></feMerge></filter></defs><g filter="url(#editing-shiny)"><g transform="matrix(1.3,0,0,1.7,-44.5,193.4)"><path d="M -0.4 -53.1 L -14.3 -53.1 L -6.2 -95.3 L 7.9 -95.3 L -0.4 -53.1 Z M 55.4 -51.8 L 55.4 -51.8 L 55.4 -51.8 Q 47.6 -51.8 47.6 -57.8 L 47.6 -57.8 L 47.6 -57.8 Q 47.6 -60.5 48.8 -65.5 L 48.8 -65.5 L 48.8 -65.5 Q 49.9 -70.6 50.3 -72.7 L 50.3 -72.7 L 50.3 -72.7 Q 51.2 -77.4 51.2 -78.8 L 51.2 -78.8 L 51.2 -78.8 Q 51.2 -82.1 48.7 -82.1 L 48.7 -82.1 L 48.7 -82.1 Q 47.1 -82.1 45.6 -79.9 L 45.6 -79.9 L 45.6 -79.9 Q 44.1 -77.7 43.3 -73.3 L 43.3 -73.3 L 39.4 -53.1 L 26.9 -51.8 L 30.4 -69.2 L 30.4 -69.2 Q 30.9 -72.1 31.4 -75.4 L 31.4 -75.4 L 31.4 -75.4 Q 32 -78.6 32 -79.2 L 32 -79.2 L 32 -79.2 Q 32 -82.1 29.8 -82.1 L 29.8 -82.1 L 29.8 -82.1 Q 28.3 -82.1 26.7 -79.9 L 26.7 -79.9 L 26.7 -79.9 Q 25.1 -77.7 24.2 -73.3 L 24.2 -73.3 L 20.3 -53.1 L 7.7 -51.8 L 14.4 -85.7 L 24.8 -87 L 23.8 -80.6 L 23.8 -80.6 Q 25.4 -84 28.5 -85.5 L 28.5 -85.5 L 28.5 -85.5 Q 31.6 -87 36.4 -87 L 36.4 -87 L 36.4 -87 Q 39.1 -87 40.9 -85.7 L 40.9 -85.7 L 40.9 -85.7 Q 42.7 -84.3 43.3 -82.2 L 43.3 -82.2 L 43.3 -82.2 Q 44.4 -84.4 47.2 -85.7 L 47.2 -85.7 L 47.2 -85.7 Q 49.9 -87 53.4 -87 L 53.4 -87 L 53.4 -87 Q 56.8 -87 58.5 -86.3 L 58.5 -86.3 L 58.5 -86.3 Q 60.2 -85.6 61.2 -84.3 L 61.2 -84.3 L 61.2 -84.3 Q 62.9 -82.1 62.9 -78 L 62.9 -78 L 62.9 -78 Q 62.9 -74 61.2 -65.6 L 61.2 -65.6 L 61.2 -65.6 Q 60.3 -61.5 60.3 -60 L 60.3 -60 L 60.3 -60 Q 60.3 -58.5 61.2 -57.6 L 61.2 -57.6 L 61.2 -57.6 Q 62 -56.7 63.3 -56.6 L 63.3 -56.6 L 63.3 -56.6 Q 62.7 -54.4 60.5 -53.1 L 60.5 -53.1 L 60.5 -53.1 Q 58.3 -51.8 55.4 -51.8 Z M 71 -55 L 71 -55 L 71 -55 Q 69.5 -56.7 68.8 -59.3 L 68.8 -59.3 L 68.8 -59.3 Q 68.2 -61.9 68.2 -66.2 L 68.2 -66.2 L 68.2 -66.2 Q 68.2 -70.5 69.6 -74.4 L 69.6 -74.4 L 69.6 -74.4 Q 71.1 -78.3 73.8 -81.1 L 73.8 -81.1 L 73.8 -81.1 Q 79.3 -87 88.4 -87 L 88.4 -87 L 88.4 -87 Q 91.7 -87 94 -85.9 L 94 -85.9 L 105 -87 L 100.2 -62.1 L 100.2 -62.1 Q 100.1 -61.3 100.1 -59.9 L 100.1 -59.9 L 100.1 -59.9 Q 100.1 -58.5 100.9 -57.6 L 100.9 -57.6 L 100.9 -57.6 Q 101.8 -56.7 103.1 -56.6 L 103.1 -56.6 L 103.1 -56.6 Q 102.4 -54.4 100.1 -53.1 L 100.1 -53.1 L 100.1 -53.1 Q 97.8 -51.8 95.1 -51.8 L 95.1 -51.8 L 95.1 -51.8 Q 92.5 -51.8 90.7 -52.8 L 90.7 -52.8 L 90.7 -52.8 Q 89 -53.8 88.5 -55.5 L 88.5 -55.5 L 88.5 -55.5 Q 87.4 -53.9 85.3 -52.8 L 85.3 -52.8 L 85.3 -52.8 Q 83.1 -51.8 80.2 -51.8 L 80.2 -51.8 L 80.2 -51.8 Q 77.3 -51.8 74.9 -52.6 L 74.9 -52.6 L 74.9 -52.6 Q 72.5 -53.4 71 -55 Z M 84.5 -81 L 84.5 -81 L 84.5 -81 Q 83.8 -79.9 83.2 -77.9 L 83.2 -77.9 L 83.2 -77.9 Q 82.5 -76 81.5 -70.7 L 81.5 -70.7 L 81.5 -70.7 Q 80.4 -65.5 80.4 -61.8 L 80.4 -61.8 L 80.4 -61.8 Q 80.4 -58.1 81 -57 L 81 -57 L 81 -57 Q 81.6 -55.9 82.6 -55.9 L 82.6 -55.9 L 82.6 -55.9 Q 84.6 -55.9 86.1 -57.9 L 86.1 -57.9 L 86.1 -57.9 Q 87.6 -59.8 88.2 -63.3 L 88.2 -63.3 L 91.6 -82 L 91.6 -82 Q 90.3 -83.2 88.7 -83.2 L 88.7 -83.2 L 88.7 -83.2 Q 87.1 -83.2 86.2 -82.7 L 86.2 -82.7 L 86.2 -82.7 Q 85.3 -82.2 84.5 -81 Z M 112.7 -79.9 L 112.7 -79.9 L 112.7 -79.9 Q 114.9 -82.9 118.2 -85 L 118.2 -85 L 118.2 -85 Q 121.5 -87 125.5 -87 L 125.5 -87 L 125.5 -87 Q 129.6 -87 131.5 -85.7 L 131.5 -85.7 L 144 -87 L 139.7 -62.4 L 139.7 -62.4 Q 137.4 -49.9 132.7 -45 L 132.7 -45 L 132.7 -45 Q 128.1 -40.3 119.3 -40.3 L 119.3 -40.3 L 119.3 -40.3 Q 112.6 -40.3 108.8 -42.4 L 108.8 -42.4 L 108.8 -42.4 Q 104.9 -44.5 104.9 -48 L 104.9 -48 L 104.9 -48 Q 104.9 -50.7 106.9 -52.2 L 106.9 -52.2 L 106.9 -52.2 Q 108.9 -53.7 112 -53.7 L 112 -53.7 L 112 -53.7 Q 114.6 -53.7 116.7 -52.5 L 116.7 -52.5 L 116.7 -52.5 Q 117.9 -51.8 118.5 -50.9 L 118.5 -50.9 L 118.5 -50.9 Q 117 -49.6 117 -47.5 L 117 -47.5 L 117 -47.5 Q 117 -44.8 119.6 -44.8 L 119.6 -44.8 L 119.6 -44.8 Q 123.9 -44.8 126.3 -54.9 L 126.3 -54.9 L 126.3 -54.9 Q 127 -57.6 127.6 -60.4 L 127.6 -60.4 L 127.6 -60.4 Q 124.7 -56.9 118.2 -56.9 L 118.2 -56.9 L 118.2 -56.9 Q 113.6 -56.9 111 -59.1 L 111 -59.1 L 111 -59.1 Q 108.4 -61.2 108.4 -66.4 L 108.4 -66.4 L 108.4 -66.4 Q 108.4 -69.5 109.5 -73.2 L 109.5 -73.2 L 109.5 -73.2 Q 110.6 -76.8 112.7 -79.9 Z M 121 -66.2 L 121 -66.2 L 121 -66.2 Q 121 -61.8 123.3 -61.8 L 123.3 -61.8 L 123.3 -61.8 Q 124.8 -61.8 126.3 -63.5 L 126.3 -63.5 L 126.3 -63.5 Q 127.4 -64.8 127.9 -66.8 L 127.9 -66.8 L 131.2 -83.2 L 131.2 -83.2 Q 130.8 -83.3 130.5 -83.4 L 130.5 -83.4 L 130.5 -83.4 Q 129.9 -83.7 129 -83.7 L 129 -83.7 L 129 -83.7 Q 125.1 -83.7 122.8 -77.3 L 122.8 -77.3 L 122.8 -77.3 Q 121 -72.3 121 -66.2 Z M 172.4 -63.9 L 172.4 -63.9 L 172.4 -63.9 Q 174 -62.8 174 -60.4 L 174 -60.4 L 174 -60.4 Q 174 -58 172.8 -56.5 L 172.8 -56.5 L 172.8 -56.5 Q 171.6 -55 169.6 -53.9 L 169.6 -53.9 L 169.6 -53.9 Q 165.5 -51.8 161.1 -51.8 L 161.1 -51.8 L 161.1 -51.8 Q 156.7 -51.8 154.1 -52.8 L 154.1 -52.8 L 154.1 -52.8 Q 151.5 -53.7 149.8 -55.5 L 149.8 -55.5 L 149.8 -55.5 Q 146.4 -58.9 146.4 -65.1 L 146.4 -65.1 L 146.4 -65.1 Q 146.4 -74.8 151.6 -80.7 L 151.6 -80.7 L 151.6 -80.7 Q 157.3 -87 167.1 -87 L 167.1 -87 L 167.1 -87 Q 173.1 -87 176.1 -84.5 L 176.1 -84.5 L 176.1 -84.5 Q 178.4 -82.5 178.4 -79.4 L 178.4 -79.4 L 178.4 -79.4 Q 178.4 -68.1 158.9 -68.1 L 158.9 -68.1 L 158.9 -68.1 Q 158.7 -66.5 158.7 -65.1 L 158.7 -65.1 L 158.7 -65.1 Q 158.7 -62.1 160 -61 L 160 -61 L 160 -61 Q 161.3 -59.9 163.7 -59.9 L 163.7 -59.9 L 163.7 -59.9 Q 166.2 -59.9 168.8 -61 L 168.8 -61 L 168.8 -61 Q 171.4 -62.1 172.4 -63.9 Z M 159.4 -70.9 L 159.4 -70.9 L 159.4 -70.9 Q 163.9 -70.9 166.6 -73.7 L 166.6 -73.7 L 166.6 -73.7 Q 169.2 -76.4 169.2 -80.7 L 169.2 -80.7 L 169.2 -80.7 Q 169.2 -82.2 168.6 -83 L 168.6 -83 L 168.6 -83 Q 168.1 -83.8 167 -83.8 L 167 -83.8 L 167 -83.8 Q 165.9 -83.8 165 -83.3 L 165 -83.3 L 165 -83.3 Q 164.1 -82.9 163.1 -81.5 L 163.1 -81.5 L 163.1 -81.5 Q 160.7 -78.3 159.4 -70.9 Z M 199.7 -75.6 L 199.7 -75.6 L 199.7 -75.6 Q 200.6 -77.9 200.6 -80 L 200.6 -80 L 200.6 -80 Q 200.6 -83.8 197.5 -83.8 L 197.5 -83.8 L 197.5 -83.8 Q 195.9 -83.8 194.6 -82.3 L 194.6 -82.3 L 194.6 -82.3 Q 193.3 -80.9 193.3 -79.1 L 193.3 -79.1 L 193.3 -79.1 Q 193.3 -77.8 194.3 -76.8 L 194.3 -76.8 L 194.3 -76.8 Q 195.8 -75.4 199.6 -73.1 L 199.6 -73.1 L 199.6 -73.1 Q 203.4 -70.8 204.8 -68.9 L 204.8 -68.9 L 204.8 -68.9 Q 206.2 -67 206.2 -64.4 L 206.2 -64.4 L 206.2 -64.4 Q 206.2 -61.8 205 -59.4 L 205 -59.4 L 205 -59.4 Q 203.7 -57.1 201.5 -55.4 L 201.5 -55.4 L 201.5 -55.4 Q 196.7 -51.8 189 -51.8 L 189 -51.8 L 189 -51.8 Q 184.9 -51.8 181.6 -54 L 181.6 -54 L 181.6 -54 Q 178.5 -56.1 178.5 -58.6 L 178.5 -58.6 L 178.5 -58.6 Q 178.5 -61.1 180.3 -62.6 L 180.3 -62.6 L 180.3 -62.6 Q 182.1 -64 184.8 -64 L 184.8 -64 L 184.8 -64 Q 187.5 -64 189.1 -63 L 189.1 -63 L 189.1 -63 Q 188.3 -60.9 188.3 -59.5 L 188.3 -59.5 L 188.3 -59.5 Q 188.3 -55.3 191.9 -55.3 L 191.9 -55.3 L 191.9 -55.3 Q 193.4 -55.3 194.5 -56.2 L 194.5 -56.2 L 194.5 -56.2 Q 195.5 -57.2 195.5 -58.9 L 195.5 -58.9 L 195.5 -58.9 Q 195.5 -62.1 190 -65.6 L 190 -65.6 L 190 -65.6 Q 185.5 -68.5 184.5 -69.7 L 184.5 -69.7 L 184.5 -69.7 Q 182.7 -71.7 182.7 -74.3 L 182.7 -74.3 L 182.7 -74.3 Q 182.7 -76.8 184 -79.3 L 184 -79.3 L 184 -79.3 Q 185.2 -81.7 187.4 -83.4 L 187.4 -83.4 L 187.4 -83.4 Q 192.1 -87 200.2 -87 L 200.2 -87 L 200.2 -87 Q 204.4 -87 206.8 -85.4 L 206.8 -85.4 L 206.8 -85.4 Q 209.3 -83.7 209.3 -80.9 L 209.3 -80.9 L 209.3 -80.9 Q 209.3 -78.1 207.6 -76.5 L 207.6 -76.5 L 207.6 -76.5 Q 205.9 -74.9 202.8 -74.9 L 202.8 -74.9 L 202.8 -74.9 Q 200.7 -74.9 199.7 -75.6 Z M 250.8 -73.7 L 263.7 -74.9 L 263.7 -74.9 Q 259.1 -64.8 259.1 -53 L 259.1 -53 L 259.1 -53 Q 257.4 -51.8 254.8 -51.8 L 254.8 -51.8 L 254.8 -51.8 Q 252.3 -51.8 250.7 -53 L 250.7 -53 L 250.7 -53 Q 249.1 -54.2 248.8 -55.4 L 248.8 -55.4 L 248.8 -55.4 Q 247.2 -53.7 244.6 -52.8 L 244.6 -52.8 L 244.6 -52.8 Q 242 -51.8 239.2 -51.8 L 239.2 -51.8 L 239.2 -51.8 Q 236.5 -51.8 234.1 -52.7 L 234.1 -52.7 L 234.1 -52.7 Q 231.7 -53.6 229.8 -55.6 L 229.8 -55.6 L 229.8 -55.6 Q 225.7 -59.9 225.7 -68.2 L 225.7 -68.2 L 225.7 -68.2 Q 225.7 -81 232.6 -88.7 L 232.6 -88.7 L 232.6 -88.7 Q 239.6 -96.6 252.1 -96.6 L 252.1 -96.6 L 252.1 -96.6 Q 260.8 -96.6 263.8 -92.1 L 263.8 -92.1 L 263.8 -92.1 Q 264.8 -90.7 264.8 -89 L 264.8 -89 L 264.8 -89 Q 264.8 -87.3 264.1 -85.9 L 264.1 -85.9 L 264.1 -85.9 Q 263.3 -84.5 262.2 -83.3 L 262.2 -83.3 L 262.2 -83.3 Q 259.4 -80.7 256 -80.7 L 256 -80.7 L 256 -80.7 Q 254.7 -80.7 253.4 -81.2 L 253.4 -81.2 L 253.4 -81.2 Q 253.7 -83.1 253.7 -85.4 L 253.7 -85.4 L 253.7 -85.4 Q 253.7 -87.6 253.5 -88.6 L 253.5 -88.6 L 253.5 -88.6 Q 253.3 -89.6 252.9 -90.5 L 252.9 -90.5 L 252.9 -90.5 Q 252.1 -92.2 250.3 -92.2 L 250.3 -92.2 L 250.3 -92.2 Q 248.5 -92.2 246.4 -90.2 L 246.4 -90.2 L 246.4 -90.2 Q 244.4 -88.3 242.8 -85.1 L 242.8 -85.1 L 242.8 -85.1 Q 239.3 -77.9 239.3 -69.3 L 239.3 -69.3 L 239.3 -69.3 Q 239.3 -65.3 240.9 -62.5 L 240.9 -62.5 L 240.9 -62.5 Q 242.5 -59.4 245.5 -59.4 L 245.5 -59.4 L 245.5 -59.4 Q 246.5 -59.4 247.4 -59.9 L 247.4 -59.9 L 247.4 -59.9 Q 248.3 -60.5 248.7 -60.8 L 248.7 -60.8 L 250.8 -73.7 Z M 269.6 -55 L 269.6 -55 L 269.6 -55 Q 268.1 -56.7 267.4 -59.3 L 267.4 -59.3 L 267.4 -59.3 Q 266.8 -61.9 266.8 -66.2 L 266.8 -66.2 L 266.8 -66.2 Q 266.8 -70.5 268.2 -74.4 L 268.2 -74.4 L 268.2 -74.4 Q 269.7 -78.3 272.4 -81.1 L 272.4 -81.1 L 272.4 -81.1 Q 277.9 -87 287 -87 L 287 -87 L 287 -87 Q 290.3 -87 292.6 -85.9 L 292.6 -85.9 L 303.6 -87 L 298.8 -62.1 L 298.8 -62.1 Q 298.6 -61.3 298.6 -59.9 L 298.6 -59.9 L 298.6 -59.9 Q 298.6 -58.5 299.5 -57.6 L 299.5 -57.6 L 299.5 -57.6 Q 300.4 -56.7 301.7 -56.6 L 301.7 -56.6 L 301.7 -56.6 Q 301 -54.4 298.7 -53.1 L 298.7 -53.1 L 298.7 -53.1 Q 296.3 -51.8 293.7 -51.8 L 293.7 -51.8 L 293.7 -51.8 Q 291.1 -51.8 289.3 -52.8 L 289.3 -52.8 L 289.3 -52.8 Q 287.6 -53.8 287.1 -55.5 L 287.1 -55.5 L 287.1 -55.5 Q 286 -53.9 283.9 -52.8 L 283.9 -52.8 L 283.9 -52.8 Q 281.7 -51.8 278.8 -51.8 L 278.8 -51.8 L 278.8 -51.8 Q 275.9 -51.8 273.5 -52.6 L 273.5 -52.6 L 273.5 -52.6 Q 271.1 -53.4 269.6 -55 Z M 283.1 -81 L 283.1 -81 L 283.1 -81 Q 282.4 -79.9 281.7 -77.9 L 281.7 -77.9 L 281.7 -77.9 Q 281.1 -76 280.1 -70.7 L 280.1 -70.7 L 280.1 -70.7 Q 279 -65.5 279 -61.8 L 279 -61.8 L 279 -61.8 Q 279 -58.1 279.6 -57 L 279.6 -57 L 279.6 -57 Q 280.2 -55.9 281.2 -55.9 L 281.2 -55.9 L 281.2 -55.9 Q 283.2 -55.9 284.7 -57.9 L 284.7 -57.9 L 284.7 -57.9 Q 286.2 -59.8 286.8 -63.3 L 286.8 -63.3 L 290.2 -82 L 290.2 -82 Q 288.9 -83.2 287.3 -83.2 L 287.3 -83.2 L 287.3 -83.2 Q 285.7 -83.2 284.8 -82.7 L 284.8 -82.7 L 284.8 -82.7 Q 283.9 -82.2 283.1 -81 Z M 322.3 -56.6 L 322.3 -56.6 L 322.3 -56.6 Q 320.3 -51.8 314 -51.8 L 314 -51.8 L 314 -51.8 Q 310.8 -51.8 308.8 -54.1 L 308.8 -54.1 L 308.8 -54.1 Q 307.1 -55.9 307.1 -58 L 307.1 -58 L 307.1 -58 Q 307.1 -62.8 309.3 -73.3 L 309.3 -73.3 L 314 -97.9 L 327 -99.2 L 320.8 -66.8 L 320.8 -66.8 Q 319.7 -62.1 319.7 -60.4 L 319.7 -60.4 L 319.7 -60.4 Q 319.7 -56.7 322.3 -56.6 Z M 343.1 -56.6 L 343.1 -56.6 L 343.1 -56.6 Q 341.1 -51.8 334.7 -51.8 L 334.7 -51.8 L 334.7 -51.8 Q 331.5 -51.8 329.5 -54.1 L 329.5 -54.1 L 329.5 -54.1 Q 327.8 -55.9 327.8 -58 L 327.8 -58 L 327.8 -58 Q 327.8 -62.8 330.1 -73.3 L 330.1 -73.3 L 334.7 -97.9 L 347.7 -99.2 L 341.5 -66.8 L 341.5 -66.8 Q 340.4 -62.1 340.4 -60.4 L 340.4 -60.4 L 340.4 -60.4 Q 340.4 -56.7 343.1 -56.6 Z M 374.4 -63.9 L 374.4 -63.9 L 374.4 -63.9 Q 376 -62.8 376 -60.4 L 376 -60.4 L 376 -60.4 Q 376 -58 374.8 -56.5 L 374.8 -56.5 L 374.8 -56.5 Q 373.6 -55 371.6 -53.9 L 371.6 -53.9 L 371.6 -53.9 Q 367.5 -51.8 363.1 -51.8 L 363.1 -51.8 L 363.1 -51.8 Q 358.7 -51.8 356.1 -52.8 L 356.1 -52.8 L 356.1 -52.8 Q 353.5 -53.7 351.8 -55.5 L 351.8 -55.5 L 351.8 -55.5 Q 348.4 -58.9 348.4 -65.1 L 348.4 -65.1 L 348.4 -65.1 Q 348.4 -74.8 353.6 -80.7 L 353.6 -80.7 L 353.6 -80.7 Q 359.2 -87 369 -87 L 369 -87 L 369 -87 Q 375.1 -87 378.1 -84.5 L 378.1 -84.5 L 378.1 -84.5 Q 380.4 -82.5 380.4 -79.4 L 380.4 -79.4 L 380.4 -79.4 Q 380.4 -68.1 360.9 -68.1 L 360.9 -68.1 L 360.9 -68.1 Q 360.7 -66.5 360.7 -65.1 L 360.7 -65.1 L 360.7 -65.1 Q 360.7 -62.1 362 -61 L 362 -61 L 362 -61 Q 363.3 -59.9 365.7 -59.9 L 365.7 -59.9 L 365.7 -59.9 Q 368.2 -59.9 370.7 -61 L 370.7 -61 L 370.7 -61 Q 373.3 -62.1 374.4 -63.9 Z M 361.4 -70.9 L 361.4 -70.9 L 361.4 -70.9 Q 365.9 -70.9 368.5 -73.7 L 368.5 -73.7 L 368.5 -73.7 Q 371.2 -76.4 371.2 -80.7 L 371.2 -80.7 L 371.2 -80.7 Q 371.2 -82.2 370.6 -83 L 370.6 -83 L 370.6 -83 Q 370.1 -83.8 369 -83.8 L 369 -83.8 L 369 -83.8 Q 367.9 -83.8 367 -83.3 L 367 -83.3 L 367 -83.3 Q 366 -82.9 365.1 -81.5 L 365.1 -81.5 L 365.1 -81.5 Q 362.7 -78.3 361.4 -70.9 Z M 402.6 -71.1 L 402.6 -71.1 L 402.6 -71.1 Q 404.9 -75.2 404.9 -79.3 L 404.9 -79.3 L 404.9 -79.3 Q 404.9 -82.1 402.9 -82.1 L 402.9 -82.1 L 402.9 -82.1 Q 401.4 -82.1 399.8 -79.5 L 399.8 -79.5 L 399.8 -79.5 Q 398.1 -76.8 397.6 -73.5 L 397.6 -73.5 L 394.3 -53.1 L 381 -51.8 L 387.5 -85.7 L 398.1 -87 L 396.9 -80.6 L 396.9 -80.6 Q 400.1 -87 407.1 -87 L 407.1 -87 L 407.1 -87 Q 410.8 -87 412.9 -85.1 L 412.9 -85.1 L 412.9 -85.1 Q 414.9 -83.2 414.9 -79.2 L 414.9 -79.2 L 414.9 -79.2 Q 414.9 -75.3 412.3 -72.8 L 412.3 -72.8 L 412.3 -72.8 Q 409.7 -70.3 405.3 -70.3 L 405.3 -70.3 L 405.3 -70.3 Q 403.4 -70.3 402.6 -71.1 Z M 436.2 -60.3 L 436.2 -60.3 L 436.2 -60.3 Q 432.9 -56.9 426.8 -56.9 L 426.8 -56.9 L 426.8 -56.9 Q 419.2 -56.9 417.6 -62.4 L 417.6 -62.4 L 417.6 -62.4 Q 417.1 -64.1 417.1 -66 L 417.1 -66 L 417.1 -66 Q 417.1 -67.8 417.5 -69.7 L 417.5 -69.7 L 420.5 -85.7 L 433.5 -87 L 430 -68.4 L 430 -68.4 Q 429.8 -67.6 429.7 -66.7 L 429.7 -66.7 L 429.7 -66.7 Q 429.5 -65.8 429.5 -64.8 L 429.5 -64.8 L 429.5 -64.8 Q 429.5 -63.9 429.8 -63.3 L 429.8 -63.3 L 429.8 -63.3 Q 430.1 -62.7 430.6 -62.3 L 430.6 -62.3 L 430.6 -62.3 Q 431.3 -61.8 432.7 -61.8 L 432.7 -61.8 L 432.7 -61.8 Q 434.1 -61.8 435.2 -63.5 L 435.2 -63.5 L 435.2 -63.5 Q 436.4 -65.1 437 -68 L 437 -68 L 440.5 -85.7 L 453.1 -87 L 448.3 -61.9 L 448.3 -61.9 Q 446 -49.6 441.1 -44.7 L 441.1 -44.7 L 441.1 -44.7 Q 438.6 -42.2 435.4 -41.2 L 435.4 -41.2 L 435.4 -41.2 Q 432.2 -40.2 428 -40.2 L 428 -40.2 L 428 -40.2 Q 421.3 -40.2 417.4 -42.3 L 417.4 -42.3 L 417.4 -42.3 Q 413.6 -44.5 413.6 -48 L 413.6 -48 L 413.6 -48 Q 413.6 -50.6 415.6 -52.1 L 415.6 -52.1 L 415.6 -52.1 Q 417.6 -53.6 420.6 -53.6 L 420.6 -53.6 L 420.6 -53.6 Q 423.3 -53.6 425.4 -52.5 L 425.4 -52.5 L 425.4 -52.5 Q 426.6 -51.8 427.2 -50.9 L 427.2 -50.9 L 427.2 -50.9 Q 425.7 -49.6 425.7 -47.5 L 425.7 -47.5 L 425.7 -47.5 Q 425.7 -44.7 428.2 -44.7 L 428.2 -44.7 L 428.2 -44.7 Q 432.5 -44.7 434.9 -54.4 L 434.9 -54.4 L 434.9 -54.4 Q 435.6 -57.3 436.2 -60.3 Z" fill="url(#editing-shiny-gradient)"></path></g></g><style>    text {
  font-size: 64px;
  font-family: Arial Black;
  dominant-baseline: central;
  text-anchor: middle;
}</style>
</svg>
